# xmcd
# 
# Track frame offsets:
#     750
#     19471
#     36649
#     53375
#     71182
#     91487
#     108533
#     127410
#     143815
#     162186
#     180254
#     196067
#     211657
#     246862
# 
# Disc length: 3299 seconds
# 
# Revision: 1
# Processed by: cddbd v1.4PL0 Copyright (c) Steve Scherf et al.
# Submitted via: BonkEnc v1.0beta1
# 
DISCID=c90cd90e
DTITLE=Nino de Angelo - Solange man liebt
DYEAR=2002
DGENRE=Ballad
TTITLE0=Alles was ich will, bist Du (Amazed)
TTITLE1=Ich war nie ein Engel
TTITLE2=Wenn Du lachst
TTITLE3=Donde vas
TTITLE4=Piccola e Fragile
TTITLE5=Ich mach' meine Augen zu (Everytime)
TTITLE6=Der goldene Reiter
TTITLE7=Solang es uns gibt
TTITLE8=Ich denk' an Dich
TTITLE9=Laß uns weitergeh'n
TTITLE10=Sarah
TTITLE11=Könige sein
TTITLE12=Ancora tu
TTITLE13=Daten
EXTD=
EXTT0=
EXTT1=
EXTT2=
EXTT3=
EXTT4=
EXTT5=
EXTT6=
EXTT7=
EXTT8=
EXTT9=
EXTT10=
EXTT11=
EXTT12=
EXTT13=
PLAYORDER=
